<?xml version="1.0" standalone="no"?>
<!DOCTYPE svg PUBLIC "-//W3C//DTD SVG 20010904//EN"
 "http://www.w3.org/TR/2001/REC-SVG-20010904/DTD/svg10.dtd">
<svg version="1.0" xmlns="http://www.w3.org/2000/svg"
 width="492.000000pt" height="189.000000pt" viewBox="0 0 492.000000 189.000000"
 preserveAspectRatio="xMidYMid meet">

<g transform="translate(0.000000,189.000000) scale(0.100000,-0.100000)"
fill="#000000" stroke="none">
<path d="M4550 1787 c0 -4 9 -21 20 -39 19 -31 20 -51 20 -361 0 -351 3 -377
51 -411 13 -9 43 -16 66 -16 l43 0 -17 27 c-16 24 -19 64 -23 380 l-5 353 -31
31 c-23 23 -44 33 -78 36 -25 3 -46 3 -46 0z"/>
<path d="M181 1673 c17 -34 19 -63 19 -338 0 -275 -2 -304 -19 -338 l-19 -37
43 0 c28 0 51 7 70 22 45 35 55 74 55 213 l0 125 94 0 c106 0 138 15 138 64 1
36 -7 41 -34 22 -16 -12 -46 -16 -110 -16 l-88 0 0 131 0 131 101 -4 c96 -3
102 -4 124 -30 28 -32 37 -34 59 -12 23 22 20 51 -9 79 -24 25 -24 25 -233 25
l-210 0 19 -37z"/>
<path d="M746 1677 c-22 -16 -9 -57 26 -81 31 -22 45 -20 73 10 28 31 33 69 9
78 -27 10 -89 7 -108 -7z"/>
<path d="M3627 1678 c-14 -12 -14 -17 -2 -45 19 -45 56 -61 88 -40 14 9 29 30
35 46 9 26 8 32 -8 41 -26 14 -93 13 -113 -2z"/>
<path d="M721 1476 c17 -28 19 -52 19 -224 0 -215 7 -250 59 -276 16 -9 45
-16 64 -16 l35 0 -19 37 c-17 33 -19 61 -19 238 0 174 2 205 18 236 l18 36
-97 0 -97 0 19 -31z"/>
<path d="M1202 1489 c-46 -15 -67 -17 -76 -10 -7 6 -34 14 -60 17 l-47 7 20
-34 c19 -32 21 -49 21 -245 0 -199 -1 -213 -21 -238 l-20 -26 45 0 c36 0 52 6
78 29 l33 29 5 186 5 185 29 30 c55 57 128 48 178 -21 21 -30 23 -46 28 -198
4 -134 9 -170 23 -191 21 -32 57 -49 102 -49 l35 0 -20 37 c-18 33 -20 57 -20
193 0 129 -3 162 -19 195 -52 113 -170 151 -319 104z"/>
<path d="M1814 1486 c-60 -28 -84 -58 -84 -102 0 -23 8 -39 26 -53 44 -35 61
-28 67 26 9 86 90 128 167 88 66 -34 77 -88 27 -132 -31 -28 -63 -40 -201 -78
-82 -23 -126 -67 -126 -126 0 -64 29 -105 97 -136 74 -34 172 -36 252 -5 47
19 57 19 80 7 15 -7 44 -17 65 -21 36 -6 39 -5 31 12 -30 73 -34 98 -35 225 0
75 -5 151 -11 170 -41 121 -224 186 -355 125z m256 -325 c0 -89 0 -89 -34
-119 -48 -42 -97 -57 -141 -42 -47 16 -75 53 -75 103 0 60 45 98 147 124 43
11 84 21 91 22 9 1 12 -23 12 -88z"/>
<path d="M2518 1490 c-51 -18 -59 -18 -92 -5 -34 14 -86 20 -86 10 0 -2 9 -19
20 -37 18 -30 20 -51 20 -228 0 -172 -2 -200 -19 -233 l-19 -37 35 0 c19 0 48
7 64 16 50 25 59 63 59 246 1 176 3 184 57 220 36 23 68 23 109 -2 59 -37 74
-86 74 -249 0 -152 8 -184 52 -215 12 -9 42 -16 65 -16 l43 0 -20 33 c-17 28
-20 50 -20 175 0 178 -10 223 -64 277 -67 66 -167 83 -278 45z"/>
<path d="M3181 1493 c-51 -18 -119 -81 -144 -135 -58 -122 -33 -254 66 -345
133 -123 352 -75 381 83 7 35 -2 62 -11 36 -11 -29 -60 -76 -98 -93 -83 -38
-160 -17 -206 57 -21 34 -24 51 -24 134 0 87 3 100 30 148 49 89 121 108 181
48 28 -28 34 -42 34 -75 0 -37 2 -41 26 -41 59 0 97 55 72 106 -38 80 -191
118 -307 77z"/>
<path d="M3603 1478 c21 -28 22 -44 27 -245 l5 -215 33 -29 c24 -22 42 -29 72
-29 l41 0 -18 33 c-16 28 -18 60 -18 242 0 178 3 215 17 241 l16 30 -98 1 -98
0 21 -29z"/>
<path d="M4038 1496 c-102 -36 -138 -107 -83 -161 33 -34 65 -33 65 0 0 38 25
90 51 109 63 44 179 -5 179 -76 0 -52 -50 -85 -180 -118 -132 -34 -168 -59
-177 -128 -11 -84 54 -151 167 -172 60 -11 153 1 204 27 26 14 32 14 55 0 33
-19 87 -31 101 -22 8 5 5 14 -7 27 -15 17 -19 45 -24 187 -5 139 -9 174 -26
213 -45 99 -207 156 -325 114z m232 -335 c0 -86 -1 -91 -31 -120 -84 -84 -219
-47 -219 61 0 54 39 91 116 113 32 9 70 20 84 25 49 17 50 15 50 -79z"/>
<path d="M205 742 c-42 -8 -45 -24 -45 -285 0 -152 4 -256 10 -268 9 -16 22
-19 75 -19 78 0 85 8 85 109 0 56 -3 71 -15 71 -12 0 -15 -14 -15 -70 0 -60
-3 -71 -21 -80 -23 -13 -70 -5 -81 13 -10 16 -10 469 0 485 11 16 48 23 79 16
21 -6 23 -11 23 -80 0 -59 3 -74 15 -74 20 0 22 152 2 169 -15 11 -79 19 -112
13z"/>
<path d="M730 742 c-24 -2 -48 -9 -52 -15 -9 -14 -11 -518 -2 -541 8 -21 126
-23 143 -2 12 14 19 525 7 544 -8 13 -41 18 -96 14z m70 -39 c7 -7 6 -490 -1
-497 -3 -3 -19 -9 -36 -12 -24 -5 -36 -1 -52 15 -20 20 -21 31 -21 244 0 258
4 271 68 261 20 -3 39 -8 42 -11z"/>
<path d="M1697 743 c-28 -7 -37 -45 -37 -154 0 -125 7 -139 65 -139 76 0 75 2
75 -126 0 -113 0 -115 -25 -126 -18 -8 -35 -9 -53 -2 -26 9 -27 13 -30 82 -2
55 -6 72 -17 72 -12 0 -15 -15 -15 -71 0 -100 7 -109 84 -109 42 0 67 5 75 14
8 9 11 59 9 152 l-3 139 -55 3 c-30 2 -60 8 -67 14 -9 7 -13 39 -13 97 0 99
14 131 58 131 47 0 56 -13 60 -89 2 -39 8 -71 13 -71 11 0 12 150 0 168 -8 13
-90 23 -124 15z"/>
<path d="M2677 743 c-4 -3 -7 -134 -7 -290 l0 -283 85 0 c69 0 85 3 85 15 0
12 -14 15 -70 15 l-70 0 0 275 c0 151 -4 275 -8 275 -5 0 -12 -3 -15 -7z"/>
<path d="M3636 728 c-3 -13 -23 -142 -44 -288 -29 -193 -37 -267 -29 -272 18
-11 23 1 36 82 19 113 17 110 60 110 l38 0 12 -77 c16 -104 19 -113 40 -113
16 0 13 26 -30 288 -26 158 -48 288 -48 290 -1 1 -8 2 -16 2 -8 0 -17 -10 -19
-22z m39 -198 c20 -149 21 -140 -21 -140 l-36 0 5 43 c3 23 12 85 18 137 7 52
14 90 15 85 2 -6 10 -62 19 -125z"/>
<path d="M1170 455 c0 -247 2 -285 15 -285 13 0 15 31 16 213 l1 212 47 -185
c26 -102 51 -197 54 -213 4 -15 14 -27 22 -27 13 0 15 40 15 285 0 245 -2 285
-15 285 -12 0 -15 -32 -17 -207 l-3 -208 -43 170 c-24 94 -47 187 -53 208 -6
21 -16 37 -24 37 -13 0 -15 -42 -15 -285z"/>
<path d="M2170 733 c-1 -5 -1 -127 0 -273 1 -193 4 -268 13 -277 13 -12 39
-16 98 -14 56 2 59 16 59 312 0 232 -2 260 -16 257 -14 -3 -16 -32 -15 -245 1
-133 -3 -252 -8 -266 -11 -28 -52 -42 -81 -27 -19 10 -20 22 -20 275 0 229 -2
265 -15 265 -8 0 -15 -3 -15 -7z"/>
<path d="M3100 730 c0 -5 16 -12 35 -16 19 -3 36 -9 36 -13 1 -3 3 -109 5
-236 3 -305 3 -297 14 -293 7 2 11 100 11 271 l1 267 23 0 c30 0 55 10 55 21
0 5 -40 9 -90 9 -50 0 -90 -4 -90 -10z"/>
<path d="M4090 455 c0 -247 2 -285 15 -285 13 0 15 31 16 213 l1 212 47 -185
c26 -102 51 -197 54 -213 4 -15 14 -27 22 -27 13 0 15 40 15 285 0 245 -2 285
-15 285 -12 0 -15 -32 -17 -207 l-3 -208 -43 170 c-24 94 -47 187 -53 208 -6
21 -16 37 -24 37 -13 0 -15 -42 -15 -285z"/>
<path d="M4580 730 c0 -5 6 -10 13 -11 6 -1 21 -2 32 -3 19 -1 20 -9 23 -273
2 -234 4 -273 17 -273 13 0 15 38 15 273 l0 272 35 -1 c24 -1 35 2 35 12 0 11
-19 14 -85 14 -50 0 -85 -4 -85 -10z"/>
</g>
</svg>
